<?xml version="1.0" encoding="utf-8"?>
<!-- Generator: Adobe Illustrator 24.1.2, SVG Export Plug-In . SVG Version: 6.00 Build 0)  -->
<svg version="1.1" id="Layer_1" xmlns="http://www.w3.org/2000/svg" xmlns:xlink="http://www.w3.org/1999/xlink" x="0px" y="0px"
	 viewBox="0 0 587.23 199.4" style="enable-background:new 0 0 587.23 199.4;" xml:space="preserve">
<g>
	<polygon points="49.87,40.04 25.72,40.04 25.72,7.22 6.46,7.22 6.46,90.85 25.72,90.85 25.72,59.29 49.87,59.29 49.87,90.85 
		69.12,90.85 69.12,7.22 49.87,7.22 	"/>
	<polygon points="111.39,42.88 94.19,6.54 72.88,6.54 101.48,67.15 91.79,90.85 112.64,90.85 146.94,6.54 126.09,6.54 	"/>
	<path d="M181.23,7.22l-28.48,83.62h20.39l3.42-10.14h26.32l3.3,10.14h20.28l-27-83.62H181.23z M183.16,61.45l6.95-20.28l6.61,20.28
		H183.16z"/>
	<polygon points="280.34,56.1 253.12,7.45 232.15,7.45 232.15,90.85 251.41,90.85 251.41,42.09 278.75,90.85 299.6,90.85 
		299.6,7.22 280.34,7.22 	"/>
	<path d="M342.09,63.28h16.75v4.22c-2.2,1.6-4.6,2.73-7.18,3.42c-2.58,0.68-5.18,0.93-7.8,0.74c-2.62-0.19-5.17-0.83-7.63-1.94
		c-2.47-1.1-4.69-2.64-6.66-4.61c-2.2-2.2-3.87-4.71-5.01-7.52c-1.14-2.81-1.71-5.66-1.71-8.54c0-2.89,0.57-5.73,1.71-8.54
		c1.14-2.81,2.81-5.32,5.01-7.52c2.2-2.2,4.71-3.85,7.52-4.96c2.81-1.1,5.66-1.65,8.54-1.65c2.89,0,5.73,0.55,8.54,1.65
		c2.81,1.1,5.32,2.75,7.52,4.96l13.67-13.67c-4.1-4.1-8.74-7.18-13.9-9.23C356.29,8.02,351.02,7,345.62,7
		c-5.39,0-10.67,1.03-15.84,3.08c-5.17,2.05-9.8,5.13-13.9,9.23c-4.1,4.1-7.16,8.74-9.17,13.9c-2.01,5.17-3.02,10.44-3.02,15.84
		c0,5.39,1.01,10.65,3.02,15.78c2.01,5.13,5.07,9.74,9.17,13.84c4.1,4.1,8.73,7.18,13.9,9.23c5.16,2.05,10.44,3.08,15.84,3.08
		c2.2,0,4.42-0.17,6.67-0.51c2.24-0.34,4.42-0.89,6.55-1.65v2.05h19.37V44.02h-36.11V63.28z"/>
	<path d="M447.82,7.22h-18.23l-28.48,83.62h20.39l3.42-10.14h26.32l3.3,10.14h20.28L447.82,7.22z M431.52,61.45l6.95-20.28
		l6.61,20.28H431.52z"/>
	<path d="M400.76,150.5c-0.46-0.58-1.2-1.33-2.22-2.24l-5.83-5.19l-13.75,15.47l2.05,1.82l5.59-6.29l3.97,3.53
		c2.19,1.95,4.11,2.83,5.75,2.67c1.65-0.17,3.06-0.91,4.22-2.22c0.68-0.77,1.15-1.61,1.41-2.53c0.26-0.92,0.28-1.78,0.09-2.6
		C401.83,152.11,401.4,151.31,400.76,150.5z M399.35,154.14c-0.08,0.75-0.41,1.45-0.99,2.1c-0.79,0.89-1.69,1.34-2.68,1.34
		c-0.99,0-2.15-0.59-3.47-1.77l-4-3.56l4.91-5.53l3.96,3.52c0.93,0.83,1.52,1.44,1.79,1.83
		C399.27,152.7,399.43,153.39,399.35,154.14z"/>
	<path d="M435.4,170.01c-1.14-1.38-2.61-2.38-4.41-3.03c-2.75-0.98-5.32-0.87-7.71,0.34s-4.17,3.43-5.32,6.67
		c-0.61,1.71-0.82,3.47-0.62,5.27c0.2,1.8,0.86,3.4,1.99,4.8c1.13,1.4,2.61,2.43,4.45,3.09c1.69,0.6,3.41,0.77,5.16,0.49
		s3.3-1.06,4.66-2.33c1.35-1.28,2.38-2.9,3.09-4.88c0.7-1.95,0.94-3.83,0.73-5.64C437.21,172.97,436.53,171.38,435.4,170.01z
		 M434.03,179.46c-0.9,2.51-2.21,4.22-3.96,5.14c-1.74,0.92-3.58,1.03-5.52,0.34c-1.91-0.68-3.25-1.92-4.03-3.73
		c-0.78-1.8-0.75-3.88,0.09-6.23c1.05-2.93,2.45-4.79,4.22-5.58c1.76-0.78,3.56-0.85,5.39-0.2c1.29,0.46,2.33,1.2,3.13,2.22
		c0.8,1.02,1.26,2.22,1.37,3.59C434.82,176.39,434.6,177.87,434.03,179.46z"/>
	<path d="M473.76,184.94c-0.39-0.32-0.96-0.63-1.71-0.94c1.97-0.38,3.4-1.09,4.3-2.15c0.9-1.06,1.31-2.32,1.23-3.78
		c-0.06-1.14-0.4-2.16-1.02-3.07s-1.42-1.53-2.4-1.85c-0.98-0.32-2.39-0.43-4.23-0.34l-9.17,0.48l1.09,20.67l2.73-0.14l-0.48-9.18
		l3.17-0.17c0.71-0.04,1.21-0.03,1.53,0.02c0.43,0.08,0.85,0.24,1.28,0.48c0.42,0.24,0.91,0.68,1.46,1.31s1.26,1.55,2.12,2.75
		l2.96,4.16l3.44-0.18l-3.89-5.44C475.41,186.5,474.6,185.63,473.76,184.94z M469.86,181.96l-5.88,0.31l-0.36-6.84l6.54-0.34
		c1.53-0.08,2.67,0.17,3.41,0.77c0.74,0.59,1.14,1.38,1.19,2.36c0.03,0.67-0.12,1.29-0.45,1.88c-0.34,0.59-0.85,1.03-1.54,1.33
		C472.08,181.71,471.11,181.89,469.86,181.96z"/>
	<polygon points="512.38,163.41 511.39,161.17 496.39,167.81 497.38,170.05 503.62,167.29 511,183.98 513.51,182.87 506.12,166.18 	
		"/>
	<polygon points="543.2,147.11 536.26,153.9 531.77,149.32 539.8,141.47 538.09,139.72 528.11,149.48 542.58,164.28 544.54,162.37 
		537.96,155.65 544.91,148.85 	"/>
	<path d="M572.05,113.21c-1.17-1.45-2.71-2.61-4.62-3.46c-1.89-0.85-3.74-1.24-5.56-1.17c-1.82,0.07-3.46,0.61-4.92,1.64
		c-1.46,1.03-2.58,2.41-3.36,4.16c-1.19,2.66-1.28,5.23-0.26,7.71c1.02,2.48,3.1,4.42,6.23,5.83c1.66,0.74,3.39,1.09,5.2,1.03
		c1.81-0.06,3.46-0.59,4.94-1.61c1.49-1.02,2.63-2.41,3.43-4.19c0.73-1.64,1.03-3.34,0.89-5.11
		C573.86,116.27,573.21,114.66,572.05,113.21z M570.97,122.2c-0.83,1.85-2.17,3.09-4.03,3.73c-1.86,0.64-3.93,0.45-6.2-0.57
		c-2.84-1.27-4.59-2.82-5.23-4.64c-0.64-1.82-0.57-3.62,0.22-5.39c0.56-1.25,1.38-2.23,2.46-2.94s2.31-1.08,3.69-1.09
		c1.38-0.01,2.84,0.34,4.38,1.02c2.43,1.09,4.04,2.54,4.81,4.35C571.85,118.47,571.82,120.32,570.97,122.2z"/>
	<polygon points="580.91,73.1 580.42,83.28 562.18,82.41 562.05,85.14 582.73,86.13 583.35,73.21 	"/>
	<rect x="558.92" y="45.58" transform="matrix(0.9679 -0.2514 0.2514 0.9679 6.4806 144.6251)" width="20.7" height="2.74"/>
	<path d="M560.22,22.06c1.51-1.01,2.73-2.29,3.65-3.85c0.92-1.56,1.34-3.24,1.28-5.04c-0.07-1.8-0.64-3.51-1.72-5.13
		c-1-1.5-2.28-2.66-3.85-3.48s-3.28-1.13-5.13-0.91s-3.65,0.9-5.39,2.06c-1.73,1.15-3.04,2.51-3.96,4.08
		c-0.92,1.57-1.33,3.25-1.24,5.04c0.09,1.78,0.66,3.47,1.72,5.06c1.62,2.43,3.74,3.87,6.38,4.33
		C554.61,24.68,557.36,23.96,560.22,22.06z M551.97,21.63c-1.88-0.43-3.36-1.45-4.43-3.06c-0.76-1.14-1.15-2.35-1.18-3.65
		c-0.03-1.3,0.32-2.53,1.05-3.7c0.73-1.17,1.8-2.22,3.2-3.15c2.22-1.47,4.3-2.06,6.24-1.75c1.94,0.31,3.49,1.32,4.63,3.03
		c1.12,1.69,1.45,3.48,1,5.4c-0.45,1.91-1.72,3.56-3.79,4.94C556.1,21.41,553.86,22.06,551.97,21.63z"/>
</g>
</svg>
