<?xml version="1.0" encoding="utf-8"?>
<!-- Generator: Adobe Illustrator 24.1.2, SVG Export Plug-In . SVG Version: 6.00 Build 0)  -->
<svg version="1.1" id="Layer_1" xmlns="http://www.w3.org/2000/svg" xmlns:xlink="http://www.w3.org/1999/xlink" x="0px" y="0px"
	 viewBox="0 0 595.28 841.89" style="enable-background:new 0 0 595.28 841.89;" xml:space="preserve">
<g>
	<path d="M353.75,453.13c-0.29-0.37-0.76-0.84-1.41-1.42l-3.7-3.29l-8.71,9.81l1.3,1.15l3.54-3.99l2.52,2.24
		c1.39,1.23,2.6,1.79,3.65,1.69c1.04-0.11,1.93-0.58,2.68-1.41c0.43-0.49,0.73-1.02,0.89-1.6c0.16-0.58,0.18-1.13,0.05-1.65
		S354.16,453.63,353.75,453.13z M352.86,455.43c-0.05,0.48-0.26,0.92-0.62,1.33c-0.5,0.57-1.07,0.85-1.7,0.85
		c-0.63,0-1.36-0.37-2.2-1.12l-2.54-2.25l3.11-3.51l2.51,2.23c0.59,0.52,0.97,0.91,1.13,1.16
		C352.81,454.52,352.91,454.95,352.86,455.43z"/>
	<path d="M375.69,465.47c-0.72-0.87-1.65-1.51-2.79-1.92c-1.74-0.62-3.37-0.55-4.89,0.22c-1.52,0.77-2.64,2.18-3.37,4.23
		c-0.39,1.08-0.52,2.2-0.39,3.34c0.13,1.14,0.54,2.16,1.26,3.04c0.71,0.89,1.65,1.54,2.82,1.96c1.07,0.38,2.16,0.49,3.27,0.31
		c1.11-0.18,2.09-0.67,2.95-1.48c0.86-0.81,1.51-1.84,1.96-3.09c0.44-1.24,0.6-2.43,0.46-3.57
		C376.84,467.35,376.41,466.34,375.69,465.47z M374.82,471.46c-0.57,1.59-1.4,2.68-2.51,3.26c-1.1,0.58-2.27,0.65-3.5,0.21
		c-1.21-0.43-2.06-1.22-2.55-2.36c-0.5-1.14-0.48-2.46,0.06-3.95c0.66-1.86,1.55-3.04,2.67-3.54s2.26-0.54,3.41-0.13
		c0.82,0.29,1.48,0.76,1.98,1.41c0.51,0.65,0.8,1.41,0.87,2.28C375.33,469.52,375.18,470.46,374.82,471.46z"/>
	<path d="M400.04,474.93c-0.25-0.2-0.61-0.4-1.08-0.6c1.25-0.24,2.16-0.69,2.72-1.36c0.57-0.67,0.83-1.47,0.78-2.4
		c-0.04-0.72-0.25-1.37-0.65-1.95c-0.4-0.58-0.9-0.97-1.52-1.17c-0.62-0.2-1.51-0.27-2.68-0.21l-5.81,0.31l0.69,13.1l1.73-0.09
		l-0.31-5.82l2.01-0.11c0.45-0.02,0.77-0.02,0.97,0.01c0.27,0.05,0.54,0.15,0.81,0.31c0.27,0.15,0.58,0.43,0.93,0.83
		c0.35,0.4,0.8,0.98,1.35,1.74l1.88,2.63l2.18-0.12l-2.47-3.45C401.08,475.93,400.57,475.37,400.04,474.93z M397.56,473.05
		l-3.73,0.2l-0.23-4.33l4.15-0.22c0.97-0.05,1.69,0.11,2.16,0.49c0.47,0.38,0.72,0.87,0.75,1.49c0.02,0.42-0.07,0.82-0.29,1.19
		c-0.21,0.37-0.54,0.65-0.98,0.84C398.97,472.89,398.35,473,397.56,473.05z"/>
	<polygon points="424.53,461.27 423.9,459.85 414.4,464.07 415.02,465.48 418.98,463.73 423.67,474.31 425.25,473.6 420.56,463.03 	
		"/>
	<polygon points="444.08,450.9 439.68,455.21 436.84,452.31 441.92,447.33 440.83,446.22 434.51,452.42 443.7,461.79 444.94,460.57 
		440.76,456.31 445.16,452 	"/>
	<path d="M462.34,429.38c-0.74-0.92-1.72-1.65-2.93-2.19c-1.2-0.54-2.37-0.78-3.53-0.74s-2.19,0.39-3.12,1.04
		c-0.93,0.65-1.63,1.53-2.13,2.64c-0.75,1.69-0.81,3.32-0.16,4.89c0.65,1.57,1.97,2.8,3.96,3.69c1.05,0.47,2.15,0.69,3.3,0.65
		c1.15-0.04,2.19-0.38,3.13-1.02c0.94-0.64,1.66-1.53,2.17-2.66c0.46-1.04,0.65-2.12,0.56-3.24
		C463.5,431.31,463.08,430.29,462.34,429.38z M461.67,435.08c-0.52,1.17-1.37,1.96-2.55,2.37c-1.18,0.41-2.49,0.29-3.93-0.36
		c-1.8-0.8-2.91-1.78-3.32-2.94c-0.41-1.15-0.36-2.29,0.14-3.41c0.35-0.79,0.87-1.41,1.56-1.87c0.68-0.46,1.46-0.69,2.34-0.69
		c0.87,0,1.8,0.21,2.77,0.65c1.54,0.69,2.56,1.61,3.06,2.75S462.2,433.88,461.67,435.08z"/>
	<polygon points="467.92,403.89 467.63,410.34 456.07,409.81 455.99,411.55 469.09,412.15 469.47,403.96 	"/>
	<rect x="453.95" y="386.45" transform="matrix(0.9673 -0.2536 0.2536 0.9673 -83.1617 129.4297)" width="13.12" height="1.74"/>
	<path d="M454.72,371.53c0.96-0.64,1.73-1.46,2.3-2.45c0.58-0.99,0.85-2.06,0.8-3.2c-0.04-1.14-0.41-2.22-1.1-3.25
		c-0.63-0.95-1.45-1.68-2.44-2.2c-1-0.52-2.08-0.71-3.25-0.57c-1.17,0.14-2.31,0.58-3.42,1.32c-1.09,0.73-1.93,1.59-2.5,2.59
		c-0.58,1-0.84,2.06-0.78,3.19c0.06,1.13,0.42,2.2,1.1,3.21c1.03,1.54,2.38,2.45,4.05,2.74
		C451.17,373.2,452.91,372.74,454.72,371.53z M449.5,371.27c-1.19-0.27-2.13-0.91-2.82-1.93c-0.48-0.72-0.73-1.49-0.75-2.31
		c-0.02-0.82,0.2-1.6,0.66-2.35c0.46-0.74,1.14-1.41,2.03-2c1.4-0.94,2.72-1.31,3.95-1.12c1.23,0.19,2.21,0.83,2.94,1.92
		c0.71,1.07,0.93,2.21,0.64,3.42c-0.28,1.21-1.08,2.26-2.4,3.14C452.11,371.13,450.69,371.54,449.5,371.27z"/>
	<polygon points="109.34,383.2 94.96,383.2 94.96,367.66 82.96,367.66 82.96,408.5 94.96,408.5 94.96,392.71 109.34,392.71 
		109.34,408.5 121.34,408.5 121.34,367.66 109.34,367.66 	"/>
	<polygon points="152.25,367.66 145.09,384.22 144.86,384.22 137.7,367.66 125.02,367.66 138.97,395.56 138.97,408.5 150.97,408.5 
		150.97,395.56 164.93,367.66 	"/>
	<path d="M173.73,367.66L160.4,408.5h12.62l2.12-8.12h12.23l2.12,8.12h12.62l-13.33-40.84H173.73z M177.35,391.91l3.79-14.52h0.23
		l3.79,14.52H177.35z"/>
	<polygon points="230.41,388.55 230.22,388.55 215.78,367.66 205.79,367.66 205.79,408.5 217.79,408.5 217.79,387.27 217.99,387.27 
		232.54,408.5 242.41,408.5 242.41,367.66 230.41,367.66 	"/>
	<path d="M268.85,393.87h6.23l-0.06,0.42c-0.13,1.08-0.51,2-1.13,2.77c-0.62,0.77-1.43,1.36-2.43,1.77c-1,0.41-2.15,0.61-3.45,0.61
		c-1.75,0-3.28-0.45-4.58-1.34c-1.3-0.9-2.31-2.2-3.03-3.92c-0.72-1.72-1.08-3.81-1.08-6.28v-0.03c0-2.42,0.32-4.45,0.96-6.11
		c0.64-1.66,1.57-2.92,2.77-3.76c1.21-0.85,2.66-1.27,4.36-1.27c1.74,0,3.21,0.39,4.42,1.16c1.21,0.77,2.02,1.84,2.43,3.2l0.08,0.28
		h11.8l-0.03-0.28c-0.26-2.72-1.24-5.14-2.93-7.27c-1.69-2.13-3.9-3.81-6.62-5.04c-2.73-1.23-5.8-1.84-9.21-1.84
		c-4.19,0-7.8,0.83-10.83,2.48c-3.03,1.65-5.36,4.05-6.99,7.19c-1.63,3.14-2.45,6.95-2.45,11.42v0.03c0,4.53,0.82,8.37,2.46,11.52
		c1.64,3.15,4,5.55,7.08,7.2s6.77,2.48,11.09,2.48c3.96,0,7.35-0.73,10.17-2.19c2.82-1.46,4.98-3.55,6.48-6.25s2.25-5.93,2.25-9.67
		v-5.52h-17.77V393.87z"/>
	<path d="M329.53,408.5h12.62l-13.33-40.84h-15.06l-13.33,40.84h12.62l2.12-8.12h12.23L329.53,408.5z M317.39,391.91l3.79-14.52
		h0.23l3.79,14.52H317.39z"/>
	<polygon points="372.2,383.2 357.83,383.2 357.83,367.66 345.83,367.66 345.83,408.5 357.83,408.5 357.83,392.71 372.2,392.71 
		372.2,408.5 384.2,408.5 384.2,367.66 372.2,367.66 	"/>
</g>
</svg>
