<?xml version="1.0" encoding="utf-8"?>
<!-- Generator: Adobe Illustrator 24.1.2, SVG Export Plug-In . SVG Version: 6.00 Build 0)  -->
<svg version="1.1" id="Layer_1" xmlns="http://www.w3.org/2000/svg" xmlns:xlink="http://www.w3.org/1999/xlink" x="0px" y="0px"
	 viewBox="0 0 595.28 841.89" style="enable-background:new 0 0 595.28 841.89;" xml:space="preserve">
<g>
	<path d="M332.9,456.53c-0.32-0.41-0.84-0.93-1.56-1.57l-4.09-3.64l-9.64,10.84l1.43,1.28l3.92-4.41l2.78,2.47
		c1.53,1.36,2.88,1.99,4.03,1.87c1.16-0.12,2.14-0.64,2.96-1.56c0.48-0.54,0.81-1.13,0.99-1.77c0.18-0.64,0.2-1.25,0.06-1.82
		S333.35,457.09,332.9,456.53z M331.91,459.07c-0.06,0.53-0.29,1.02-0.69,1.47c-0.56,0.63-1.18,0.94-1.88,0.94
		c-0.7,0-1.51-0.42-2.43-1.24l-2.8-2.49l3.45-3.87l2.77,2.47c0.65,0.58,1.07,1.01,1.25,1.29
		C331.85,458.06,331.97,458.55,331.91,459.07z"/>
	<path d="M357.09,470.18c-0.8-0.97-1.83-1.67-3.08-2.13c-1.92-0.69-3.73-0.61-5.4,0.23s-2.92,2.4-3.74,4.67
		c-0.43,1.2-0.58,2.43-0.44,3.69c0.14,1.26,0.6,2.38,1.39,3.37c0.79,0.98,1.83,1.71,3.11,2.17c1.19,0.43,2.39,0.54,3.62,0.35
		c1.23-0.2,2.31-0.74,3.27-1.63c0.95-0.89,1.67-2.03,2.17-3.42c0.49-1.37,0.66-2.68,0.52-3.95S357.88,471.15,357.09,470.18z
		 M356.12,476.8c-0.63,1.76-1.56,2.96-2.78,3.6c-1.22,0.64-2.51,0.72-3.87,0.23c-1.34-0.48-2.28-1.35-2.82-2.62
		c-0.54-1.26-0.52-2.72,0.07-4.36c0.74-2.05,1.72-3.36,2.96-3.9s2.5-0.59,3.77-0.13c0.9,0.32,1.63,0.84,2.19,1.56
		c0.56,0.71,0.88,1.55,0.96,2.52C356.68,474.65,356.52,475.69,356.12,476.8z"/>
	<path d="M383.85,480.69c-0.28-0.22-0.67-0.45-1.19-0.67c1.38-0.26,2.39-0.76,3.02-1.5c0.63-0.74,0.92-1.62,0.87-2.65
		c-0.04-0.8-0.28-1.51-0.71-2.15s-0.99-1.07-1.68-1.3s-1.67-0.31-2.96-0.24l-6.42,0.32l0.72,14.49l1.92-0.09l-0.32-6.43l2.22-0.11
		c0.5-0.02,0.85-0.02,1.07,0.02c0.3,0.06,0.6,0.17,0.89,0.34c0.3,0.17,0.64,0.48,1.02,0.92c0.38,0.44,0.88,1.09,1.48,1.93l2.07,2.92
		l2.41-0.12l-2.72-3.82C384.99,481.79,384.43,481.18,383.85,480.69z M381.12,478.6l-4.12,0.2l-0.24-4.79l4.58-0.23
		c1.07-0.05,1.87,0.13,2.39,0.55c0.52,0.42,0.8,0.97,0.83,1.65c0.02,0.47-0.08,0.91-0.32,1.32c-0.24,0.41-0.6,0.72-1.08,0.93
		C382.67,478.43,381.99,478.56,381.12,478.6z"/>
	<polygon points="410.86,465.74 410.17,464.17 399.64,468.78 400.33,470.34 404.7,468.43 409.83,480.15 411.59,479.38 
		406.46,467.66 	"/>
	<polygon points="432.44,454.48 427.55,459.21 424.43,455.98 430.08,450.52 428.89,449.29 421.86,456.09 431.94,466.52 
		433.32,465.18 428.74,460.45 433.63,455.71 	"/>
	<path d="M452.76,430.93c-0.81-1.02-1.88-1.84-3.22-2.45c-1.32-0.6-2.62-0.88-3.89-0.85c-1.27,0.04-2.43,0.41-3.46,1.13
		c-1.03,0.71-1.82,1.68-2.38,2.9c-0.85,1.86-0.92,3.66-0.22,5.4c0.7,1.74,2.15,3.11,4.34,4.11c1.16,0.53,2.37,0.78,3.64,0.75
		c1.27-0.03,2.43-0.4,3.47-1.1c1.05-0.7,1.85-1.68,2.42-2.92c0.52-1.15,0.74-2.34,0.65-3.58S453.57,431.95,452.76,430.93z
		 M451.97,437.22c-0.59,1.29-1.54,2.15-2.84,2.59c-1.3,0.44-2.75,0.29-4.34-0.43c-1.99-0.91-3.2-2-3.64-3.28
		c-0.44-1.28-0.38-2.54,0.18-3.77c0.4-0.87,0.98-1.55,1.74-2.05c0.76-0.5,1.62-0.75,2.59-0.74c0.97,0,1.99,0.25,3.06,0.74
		c1.7,0.77,2.82,1.8,3.35,3.07C452.6,434.62,452.57,435.91,451.97,437.22z"/>
	<polygon points="459.17,402.96 458.77,410.1 446,409.38 445.89,411.3 460.37,412.11 460.88,403.06 	"/>
	<rect x="443.93" y="383.71" transform="matrix(0.9702 -0.2425 0.2425 0.9702 -79.8154 120.8957)" width="14.51" height="1.92"/>
	<path d="M445.05,367.25c1.07-0.69,1.93-1.58,2.58-2.67c0.66-1.09,0.97-2.26,0.93-3.52c-0.03-1.26-0.42-2.46-1.17-3.61
		c-0.69-1.06-1.58-1.88-2.67-2.47c-1.09-0.59-2.29-0.81-3.59-0.68c-1.3,0.13-2.56,0.6-3.79,1.4c-1.22,0.79-2.15,1.74-2.8,2.83
		c-0.65,1.1-0.95,2.27-0.9,3.52c0.05,1.25,0.44,2.44,1.17,3.56c1.12,1.71,2.6,2.74,4.44,3.08
		C441.1,369.05,443.03,368.56,445.05,367.25z M436.19,364.71c-0.52-0.8-0.79-1.66-0.8-2.57s0.24-1.77,0.76-2.58
		c0.52-0.82,1.28-1.54,2.27-2.19c1.57-1.02,3.03-1.41,4.39-1.18c1.36,0.23,2.43,0.95,3.22,2.16c0.77,1.19,0.99,2.45,0.66,3.79
		c-0.33,1.34-1.23,2.48-2.7,3.43c-1.83,1.19-3.4,1.63-4.72,1.32C437.96,366.58,436.93,365.85,436.19,364.71z"/>
	<polygon points="106.81,376.78 96.19,376.78 96.19,351.02 88.14,351.02 88.14,409.94 96.19,409.94 96.19,383.22 106.81,383.22 
		106.81,409.94 114.86,409.94 114.86,351.02 106.81,351.02 	"/>
	<polygon points="142.74,376.78 134.69,351.02 126.64,351.02 138.55,386.44 138.55,409.94 146.6,409.94 146.6,386.44 158.84,351.02 
		151.11,351.02 	"/>
	<path d="M175.69,351.02l-10.95,58.92h7.08l2.58-15.13h11.91l2.9,15.13h8.05l-11.59-58.92H175.69z M175.37,388.37l4.83-26.72
		l4.83,26.72H175.37z"/>
	<polygon points="228.69,391.59 217.1,351.02 209.05,351.02 209.05,409.94 216.13,409.94 216.13,368.73 228.36,409.94 
		235.77,409.94 235.77,351.02 228.69,351.02 	"/>
	<path d="M263.65,350.38c-4.51,0-7.89,1.72-10.14,5.15c-2.25,3.43-3.38,8.05-3.38,13.84v19.32c0,4.29,0.33,7.86,1.01,10.71
		c0.67,2.84,1.65,5.13,2.94,6.84c1.29,1.72,2.82,2.92,4.59,3.62c1.77,0.7,3.75,1.05,5.96,1.05c2.9,0,5.31-0.38,7.24-1.13
		s3.7-1.77,5.31-3.06v-28.33h-13.52v6.44h6.12v17.39c-0.48,0.48-1.14,0.93-1.97,1.33c-0.83,0.4-1.89,0.6-3.18,0.6
		c-0.97,0-1.85-0.23-2.66-0.68c-0.8-0.46-1.48-1.25-2.01-2.37c-0.59-1.13-1.03-2.67-1.33-4.63c-0.29-1.96-0.44-4.44-0.44-7.45
		v-19.96c0-2.47,0.15-4.51,0.44-6.12s0.68-2.9,1.17-3.86c0.48-0.97,1.06-1.64,1.73-2.01c0.67-0.37,1.38-0.56,2.13-0.56
		c2.09,0,3.63,0.88,4.63,2.66c0.99,1.77,1.49,4.43,1.49,7.97h7.41c0.16-6.12-0.84-10.44-3.02-12.96
		C271.98,351.64,268.48,350.38,263.65,350.38z"/>
	<path d="M334.8,351.02h-9.98l-10.95,58.92h7.08l2.58-15.13h11.91l2.9,15.13h8.05L334.8,351.02z M324.5,388.37l4.83-26.72
		l4.83,26.72H324.5z"/>
	<polygon points="376.85,409.94 384.9,409.94 384.9,351.02 376.85,351.02 376.85,376.78 366.22,376.78 366.22,351.02 358.17,351.02 
		358.17,409.94 366.22,409.94 366.22,383.22 376.85,383.22 	"/>
</g>
</svg>
