<?xml version="1.0" encoding="utf-8"?>
<!-- Generator: Adobe Illustrator 24.1.2, SVG Export Plug-In . SVG Version: 6.00 Build 0)  -->
<svg version="1.1" id="Layer_1" xmlns="http://www.w3.org/2000/svg" xmlns:xlink="http://www.w3.org/1999/xlink" x="0px" y="0px"
	 viewBox="0 0 595.28 841.89" style="enable-background:new 0 0 595.28 841.89;" xml:space="preserve">
<g>
	<path d="M352.03,453.13c-0.29-0.37-0.76-0.84-1.41-1.42l-3.7-3.29l-8.71,9.81l1.3,1.15l3.54-3.99l2.52,2.24
		c1.39,1.23,2.6,1.79,3.65,1.69c1.04-0.11,1.93-0.58,2.68-1.41c0.43-0.49,0.73-1.02,0.89-1.6c0.16-0.58,0.18-1.13,0.05-1.65
		S352.44,453.63,352.03,453.13z M351.14,455.43c-0.05,0.48-0.26,0.92-0.62,1.33c-0.5,0.57-1.07,0.85-1.7,0.85
		c-0.63,0-1.36-0.37-2.2-1.12l-2.54-2.25l3.11-3.51l2.51,2.23c0.59,0.52,0.97,0.91,1.13,1.16
		C351.09,454.52,351.2,454.95,351.14,455.43z"/>
	<path d="M373.97,465.47c-0.72-0.87-1.65-1.51-2.79-1.92c-1.74-0.62-3.37-0.55-4.89,0.22c-1.52,0.77-2.64,2.18-3.37,4.23
		c-0.39,1.08-0.52,2.2-0.39,3.34c0.13,1.14,0.54,2.16,1.26,3.04c0.71,0.89,1.65,1.54,2.82,1.96c1.07,0.38,2.16,0.49,3.27,0.31
		c1.11-0.18,2.09-0.67,2.95-1.48c0.86-0.81,1.51-1.84,1.96-3.09c0.44-1.24,0.6-2.43,0.46-3.57
		C375.12,467.35,374.69,466.34,373.97,465.47z M373.11,471.46c-0.57,1.59-1.4,2.68-2.51,3.26c-1.1,0.58-2.27,0.65-3.5,0.21
		c-1.21-0.43-2.06-1.22-2.55-2.36c-0.5-1.14-0.48-2.46,0.06-3.95c0.66-1.86,1.55-3.04,2.67-3.54s2.26-0.54,3.41-0.13
		c0.82,0.29,1.48,0.76,1.98,1.41c0.51,0.65,0.8,1.41,0.87,2.28C373.61,469.52,373.47,470.46,373.11,471.46z"/>
	<path d="M398.32,474.93c-0.25-0.2-0.61-0.4-1.08-0.6c1.25-0.24,2.16-0.69,2.72-1.36c0.57-0.67,0.83-1.47,0.78-2.4
		c-0.04-0.72-0.25-1.37-0.65-1.95c-0.4-0.58-0.9-0.97-1.52-1.17c-0.62-0.2-1.51-0.27-2.68-0.21l-5.81,0.31l0.69,13.1l1.73-0.09
		l-0.31-5.82l2.01-0.11c0.45-0.02,0.77-0.02,0.97,0.01c0.27,0.05,0.54,0.15,0.81,0.31c0.27,0.15,0.58,0.43,0.93,0.83
		c0.35,0.4,0.8,0.98,1.35,1.74l1.88,2.63l2.18-0.12l-2.47-3.45C399.36,475.93,398.85,475.37,398.32,474.93z M395.84,473.05
		l-3.73,0.2l-0.23-4.33l4.15-0.22c0.97-0.05,1.69,0.11,2.16,0.49c0.47,0.38,0.72,0.87,0.75,1.49c0.02,0.42-0.07,0.82-0.29,1.19
		c-0.21,0.37-0.54,0.65-0.98,0.84C397.25,472.89,396.63,473,395.84,473.05z"/>
	<polygon points="422.81,461.27 422.19,459.85 412.68,464.07 413.31,465.48 417.26,463.73 421.95,474.31 423.54,473.6 
		418.85,463.03 	"/>
	<polygon points="442.36,450.9 437.96,455.21 435.12,452.31 440.2,447.33 439.12,446.22 432.79,452.42 441.98,461.79 443.22,460.57 
		439.05,456.31 443.44,452 	"/>
	<path d="M460.63,429.38c-0.74-0.92-1.72-1.65-2.93-2.19c-1.2-0.54-2.37-0.78-3.53-0.74s-2.19,0.39-3.12,1.04
		c-0.93,0.65-1.63,1.53-2.13,2.64c-0.75,1.69-0.81,3.32-0.16,4.89c0.65,1.57,1.97,2.8,3.96,3.69c1.05,0.47,2.15,0.69,3.3,0.65
		c1.15-0.04,2.19-0.38,3.13-1.02c0.94-0.64,1.66-1.53,2.17-2.66c0.46-1.04,0.65-2.12,0.56-3.24
		C461.78,431.31,461.37,430.29,460.63,429.38z M459.95,435.08c-0.52,1.17-1.37,1.96-2.55,2.37c-1.18,0.41-2.49,0.29-3.93-0.36
		c-1.8-0.8-2.91-1.78-3.32-2.94c-0.41-1.15-0.36-2.29,0.14-3.41c0.35-0.79,0.87-1.41,1.56-1.87c0.68-0.46,1.46-0.69,2.34-0.69
		c0.87,0,1.8,0.21,2.77,0.65c1.54,0.69,2.56,1.61,3.06,2.75S460.49,433.88,459.95,435.08z"/>
	<polygon points="466.21,403.89 465.91,410.34 454.35,409.81 454.27,411.55 467.38,412.15 467.75,403.96 	"/>
	<rect x="452.23" y="386.45" transform="matrix(0.9673 -0.2536 0.2536 0.9673 -83.2178 128.9942)" width="13.12" height="1.74"/>
	<path d="M453.01,371.53c0.96-0.64,1.73-1.46,2.3-2.45c0.58-0.99,0.85-2.06,0.8-3.2c-0.04-1.14-0.41-2.22-1.1-3.25
		c-0.63-0.95-1.45-1.68-2.44-2.2c-1-0.52-2.08-0.71-3.25-0.57c-1.17,0.14-2.31,0.58-3.42,1.32c-1.09,0.73-1.93,1.59-2.5,2.59
		c-0.58,1-0.84,2.06-0.78,3.19c0.06,1.13,0.42,2.2,1.1,3.21c1.03,1.54,2.38,2.45,4.05,2.74C449.45,373.2,451.2,372.74,453.01,371.53
		z M447.78,371.27c-1.19-0.27-2.13-0.91-2.82-1.93c-0.48-0.72-0.73-1.49-0.75-2.31c-0.02-0.82,0.2-1.6,0.66-2.35
		c0.46-0.74,1.14-1.41,2.03-2c1.4-0.94,2.72-1.31,3.95-1.12c1.23,0.19,2.21,0.83,2.94,1.92c0.71,1.07,0.93,2.21,0.64,3.42
		c-0.28,1.21-1.08,2.26-2.4,3.14C450.39,371.13,448.97,371.54,447.78,371.27z"/>
	<polygon points="107.95,378.85 94.59,378.85 94.59,360.69 83.93,360.69 83.93,406.96 94.59,406.96 94.59,389.5 107.95,389.5 
		107.95,406.96 118.6,406.96 118.6,360.69 107.95,360.69 	"/>
	<polygon points="153.27,360.31 145.14,380.42 135.62,360.31 123.84,360.31 139.66,393.85 134.3,406.96 145.84,406.96 
		164.81,360.31 	"/>
	<path d="M174.33,360.69l-15.76,46.27h11.28l1.89-5.61h14.56l1.83,5.61h11.22l-14.94-46.27H174.33z M175.4,390.7l3.85-11.22
		l3.66,11.22H175.4z"/>
	<polygon points="232.32,387.74 217.26,360.82 205.66,360.82 205.66,406.96 216.31,406.96 216.31,379.98 231.44,406.96 
		242.98,406.96 242.98,360.69 232.32,360.69 	"/>
	<path d="M269.64,391.71h9.27v2.33c-1.22,0.88-2.54,1.51-3.97,1.89s-2.87,0.52-4.32,0.41c-1.45-0.1-2.86-0.46-4.22-1.07
		c-1.37-0.61-2.6-1.46-3.69-2.55c-1.22-1.22-2.14-2.61-2.77-4.16c-0.63-1.55-0.95-3.13-0.95-4.73c0-1.6,0.32-3.17,0.95-4.73
		c0.63-1.55,1.55-2.94,2.77-4.16c1.22-1.22,2.61-2.13,4.16-2.74c1.55-0.61,3.13-0.91,4.73-0.91c1.6,0,3.17,0.31,4.73,0.91
		c1.55,0.61,2.94,1.52,4.16,2.74l7.56-7.56c-2.27-2.27-4.83-3.97-7.69-5.11c-2.86-1.13-5.78-1.7-8.76-1.7
		c-2.98,0-5.91,0.57-8.76,1.7c-2.86,1.13-5.42,2.84-7.69,5.11c-2.27,2.27-3.96,4.83-5.07,7.69c-1.11,2.86-1.67,5.78-1.67,8.76
		c0,2.98,0.56,5.89,1.67,8.73c1.11,2.84,2.8,5.39,5.07,7.66s4.83,3.97,7.69,5.11c2.86,1.13,5.78,1.7,8.76,1.7
		c1.22,0,2.45-0.09,3.69-0.28c1.24-0.19,2.45-0.49,3.63-0.91v1.13h10.72v-25.91h-19.98V391.71z"/>
	<path d="M334.45,360.69h-10.09l-15.76,46.27h11.28l1.89-5.61h14.56l1.83,5.61h11.22L334.45,360.69z M325.43,390.7l3.85-11.22
		l3.66,11.22H325.43z"/>
	<polygon points="378.63,378.85 365.27,378.85 365.27,360.69 354.62,360.69 354.62,406.96 365.27,406.96 365.27,389.5 378.63,389.5 
		378.63,406.96 389.29,406.96 389.29,360.69 378.63,360.69 	"/>
</g>
</svg>
