<?xml version="1.0" standalone="no"?>
<!DOCTYPE svg PUBLIC "-//W3C//DTD SVG 20010904//EN"
 "http://www.w3.org/TR/2001/REC-SVG-20010904/DTD/svg10.dtd">
<svg version="1.0" xmlns="http://www.w3.org/2000/svg"
 width="1280.000000pt" height="1185.000000pt" viewBox="0 0 1280.000000 1185.000000"
 preserveAspectRatio="xMidYMid meet">
<metadata>
Created by potrace 1.15, written by Peter Selinger 2001-2017
</metadata>
<g transform="translate(0.000000,1185.000000) scale(0.100000,-0.100000)"
fill="#000000" stroke="none">
<path d="M390 6373 l0 -5093 2395 0 2395 0 0 -320 0 -319 -32 -5 c-18 -3 -85
-13 -148 -21 -609 -83 -1230 -252 -1660 -453 l-85 -39 70 -7 c302 -28 1144
-73 1835 -98 441 -16 2050 -16 2490 0 666 24 1335 60 1730 92 63 5 126 10 140
10 35 0 18 12 -100 65 -429 195 -967 342 -1557 426 l-163 24 0 322 0 323 2380
0 2380 0 0 5090 0 5090 -6035 2 -6035 3 0 -5092z"/>
</g>
</svg>
